#!OML:ASF F:\VICON\USERDATA\INSTALL\rory3\rory3.ASF
:FULLY-SPECIFIED
:DEGREES
33
root 0.41256 16.9696 -16.2846 -16.8779 -82.5852 19.8655
lowerback 33.4456 -1.06509 2.98108
upperback 7.90409 -0.514387 8.28189
thorax -8.42409 -0.76892 7.4861
lowerneck -11.6994 -3.24426 -4.46107
upperneck 22.0085 -1.97453 -9.72727
head 8.80784 -2.49378 -2.80651
rclavicle 3.49861e-014 -2.06736e-014
rhumerus -12.2911 -52.0345 -45.6094
rradius 43.6571
rwrist -28.4205
rhand -5.78097 -1.64083
rfingers 7.12502
rthumb 20.0429 -30.6271
lclavicle 3.49861e-014 -2.06736e-014
lhumerus -46.6488 12.3076 80.313
lradius 45.1273
lwrist 7.0365
lhand -10.9782 49.7702
lfingers 7.12502
lthumb 15.0415 79.2039
rfemur -40.9998 4.70088 7.31303
rtibia 61.5671
rfoot -14.3382 -1.20773
rtoes -11.0449
lfemur -17.7946 1.52858 -35.3221
ltibia 42.8355
lfoot -17.8751 -3.99963
ltoes 12.092
34
root 0.411804 16.9991 -16.187 -18.3943 -82.3561 21.5848
lowerback 33.3619 -1.08108 2.51167
upperback 7.95125 -0.697767 8.26884
thorax -8.32869 -0.849376 7.79031
lowerneck -11.0823 -2.77885 -4.54822
upperneck 21.5372 -1.3985 -9.69263
head 8.55192 -2.19529 -2.68678
rclavicle 2.54444e-014 -1.43125e-014
rhumerus -12.4529 -53.2039 -44.8304
rradius 44.0684
rwrist -29.109
rhand -3.95212 -1.65023
rfingers 7.12502
rthumb 21.7999 -30.4425
lclavicle 2.54444e-014 -1.43125e-014
lhumerus -46.7011 12.4723 80.3089
lradius 44.9826
lwrist 6.51664
lhand -10.7442 49.5855
lfingers 7.12502
lthumb 15.2669 79.0021
rfemur -41.8076 4.05623 7.91286
rtibia 62.3105
rfoot -13.8637 -0.00506439
rtoes -14.2264
lfemur -17.4801 2.04726 -35.9604
ltibia 42.0753
lfoot -17.0865 -4.68636
ltoes 12.099
35
root 0.406862 17.0306 -16.0841 -16.4066 -82.1101 19.6601
lowerback 33.4079 -1.2597 2.7353
upperback 8.00254 -0.86048 8.2462
thorax -8.26668 -0.933201 7.70275
lowerneck -11.6269 -2.80217 -4.50573
upperneck 22.1575 -1.38615 -9.51475
head 8.86687 -2.20601 -2.66673
rclavicle 4.45278e-014 -4.13472e-014
rhumerus -13.0066 -54.4692 -43.7174
rradius 44.4806
rwrist -29.9138
rhand -1.36477 -1.76918
rfingers 7.12502
rthumb 24.2825 -30.2513
lclavicle 4.45278e-014 -4.13472e-014
lhumerus -46.621 12.2668 80.2504
lradius 44.9084
lwrist 6.01028
lhand -10.143 49.1261
lfingers 7.12502
lthumb 15.8459 78.4976
rfemur -42.3589 3.51049 8.92539
rtibia 62.836
rfoot -13.4017 1.23724
rtoes -13.3513
lfemur -17.1378 2.16702 -36.1826
ltibia 41.3819
lfoot -16.3943 -4.80201
ltoes 7.2476
36
root 0.416895 17.0598 -15.9937 -14.5582 -81.5878 18.3772
lowerback 33.0503 -1.38743 2.87486
upperback 7.87643 -0.967157 8.14734
thorax -8.25184 -0.967364 7.54872
lowerneck -12.2482 -3.00166 -4.11625
upperneck 22.8056 -1.67101 -9.40259
head 9.19041 -2.32988 -2.76235
rclavicle -4.77083e-015 -1.27222e-014
rhumerus -14.2399 -55.414 -42.1562
rradius 44.9067
rwrist -31.119
rhand 0.720268 -1.71259
rfingers 7.12502
rthumb 26.2801 -29.9124
lclavicle -4.77083e-015 -1.27222e-014
lhumerus -46.4694 11.4902 80.274
lradius 44.8314
lwrist 5.97296
lhand -11.6287 48.4997
lfingers 7.12502
lthumb 14.4148 77.9791
rfemur -43.3985 2.74421 9.87309
rtibia 63.2336
rfoot -12.8328 2.56403
rtoes -11.7339
lfemur -17.3847 2.37521 -36.3815
ltibia 40.7457
lfoot -15.7353 -5.54765
ltoes 2.84925
37
root 0.403455 17.0945 -15.8789 -14.0289 -81.2663 17.9695
lowerback 32.9629 -1.82666 2.77569
upperback 7.98128 -1.57816 8.29172
thorax -8.03679 -1.26898 7.97463
lowerneck -11.4012 -2.14556 -4.89521
upperneck 21.7424 -0.494078 -9.19761
head 8.71633 -1.76413 -2.37953
rclavicle -2.54444e-014 1.90833e-014
rhumerus -12.9849 -55.1567 -42.4877
rradius 45.242
rwrist -32.2883
rhand 2.33073 -1.49914
rfingers 7.12502
rthumb 27.8208 -29.4596
lclavicle -2.54444e-014 1.90833e-014
lhumerus -46.658 12.3584 80.4095
lradius 45.0237
lwrist 5.92297
lhand -15.5873 48.7605
lfingers 7.12502
lthumb 10.5982 78.4733
rfemur -43.8223 2.24166 10.7416
rtibia 63.4248
rfoot -12.2164 3.96544
rtoes -12.1978
lfemur -17.0493 2.25474 -36.7849
ltibia 40.1383
lfoot -15.0858 -5.6958
ltoes 13.5411
38
root 0.406773 17.1372 -15.7812 -11.0802 -81.0279 15.1333
lowerback 33.0385 -1.96832 2.92275
upperback 7.97731 -1.69531 8.4862
thorax -8.05762 -1.33243 8.15414
lowerneck -11.8757 -2.24559 -4.78713
upperneck 22.3222 -0.543533 -9.39196
head 9.00346 -1.83972 -2.49855
rclavicle 3.18055e-014 -4.13472e-014
rhumerus -13.3733 -55.2885 -41.7003
rradius 46.1327
rwrist -33.2878
rhand 3.57468 -1.52458
rfingers 7.12502
rthumb 29.0096 -29.2867
lclavicle 3.18055e-014 -4.13472e-014
lhumerus -46.6056 12.0776 80.6392
lradius 45.0499
lwrist 5.82537
lhand -15.5971 48.6407
lfingers 7.12502
lthumb 10.5888 78.354
rfemur -44.1973 1.81703 12.1858
rtibia 63.4165
rfoot -11.6064 5.37123
rtoes -13.339
lfemur -16.7927 2.51428 -36.66
ltibia 39.5874
lfoot -14.6193 -5.99483
ltoes 5.77697
39
root 0.391837 17.1622 -15.7028 -11.0937 -80.6437 15.523
lowerback 32.6844 -1.87188 2.45955
upperback 7.99432 -1.73028 8.51594
thorax -7.89909 -1.33912 8.4349
lowerneck -11.7456 -2.20237 -4.51889
upperneck 22.1814 -0.559034 -9.35802
head 8.92403 -1.80797 -2.52469
rclavicle -3.49861e-014 8.5875e-014
rhumerus -14.3376 -55.3797 -40.3844
rradius 47.0885
rwrist -34.1775
rhand 4.75469 -1.7753
rfingers 7.12502
rthumb 30.136 -29.3379
lclavicle -3.49861e-014 8.5875e-014
lhumerus -46.4469 11.2157 80.852
lradius 45.2092
lwrist 5.96518
lhand -10.7373 48.5473
lfingers 7.12502
lthumb 15.2735 77.9634
rfemur -44.8502 1.11532 13.1719
rtibia 63.3876
rfoot -11.1431 6.56444
rtoes -15.5679
lfemur -16.7804 3.46948 -36.9879
ltibia 39.0163
lfoot -13.9566 -7.30201
ltoes 6.44592
40
root 0.382559 17.2021 -15.6055 -8.95099 -80.2974 13.7515
lowerback 32.2828 -1.99484 2.71112
upperback 7.98349 -1.82227 8.47623
thorax -7.741 -1.3795 8.26748
lowerneck -11.6307 -2.26195 -4.43565
upperneck 22.106 -0.719051 -9.10602
head 8.86873 -1.83883 -2.46337
rclavicle 6.67916e-014 -7.15625e-014
rhumerus -15.2142 -55.1153 -39.0963
rradius 47.7521
rwrist -34.9311
rhand 5.90933 -1.43621
rfingers 7.12502
rthumb 31.2369 -28.7923
lclavicle 6.67916e-014 -7.15625e-014
lhumerus -46.3925 10.9501 80.6806
lradius 45.3337
lwrist 5.3255
lhand -13.5539 48.1217
lfingers 7.12502
lthumb 12.5592 77.7242
rfemur -45.3858 0.336323 14.5942
rtibia 63.1838
rfoot -10.8047 7.51725
rtoes -16.4602
lfemur -16.7648 3.22889 -37.0086
ltibia 38.4625
lfoot -13.2766 -7.69763
ltoes 6.38355
41
root 0.380443 17.2274 -15.4978 -8.51883 -79.8169 13.5852
lowerback 32.1283 -2.19656 2.91262
upperback 7.90437 -2.0111 8.32846
thorax -7.74429 -1.45865 8.0581
lowerneck -12.5877 -2.87648 -4.54655
upperneck 22.8249 -1.53433 -8.57504
head 9.27851 -2.21295 -2.39731
rclavicle -2.54444e-014 4.6118e-014
rhumerus -16.0868 -54.4939 -37.9443
rradius 48.5798
rwrist -35.4689
rhand 6.50716 -0.881663
rfingers 7.12502
rthumb 31.8064 -28.1262
lclavicle -2.54444e-014 4.6118e-014
lhumerus -46.4393 10.7273 80.5147
lradius 45.5904
lwrist 4.68874
lhand -14.7817 47.3817
lfingers 7.12502
lthumb 11.3753 77.0532
rfemur -45.8223 -0.32946 15.5781
rtibia 62.9984
rfoot -10.2824 8.70336
rtoes -15.3148
lfemur -16.6123 3.6286 -37.3534
ltibia 37.8561
lfoot -12.5486 -8.45572
ltoes 6.72086
42
root 0.371437 17.2403 -15.3897 -9.57912 -79.4396 14.9633
lowerback 31.9129 -2.22823 2.73032
upperback 7.81235 -2.10289 8.17034
thorax -7.74938 -1.48475 8.01057
lowerneck -11.7022 -2.47891 -4.12889
upperneck 22.2033 -1.13127 -8.76872
head 8.89635 -1.96834 -2.4461
rclavicle 3.49861e-014 -1.43125e-014
rhumerus -17.094 -54.0093 -36.592
rradius 49.5538
rwrist -35.9197
rhand 7.50406 -0.486319
rfingers 7.12502
rthumb 32.7554 -27.5378
lclavicle 3.49861e-014 -1.43125e-014
lhumerus -46.4517 10.1266 80.5414
lradius 45.9019
lwrist 4.75394
lhand -13.7078 47.3619
lfingers 7.12502
lthumb 12.4109 76.9735
rfemur -46.3209 -1.05278 16.3271
rtibia 62.781
rfoot -9.97494 10.0281
rtoes -15.88
lfemur -16.421 4.22812 -38.0402
ltibia 37.1498
lfoot -12.0336 -8.97057
ltoes 6.75203
43
root 0.361386 17.2583 -15.2864 -10.1417 -79.0719 15.8187
lowerback 31.7227 -2.20737 2.53897
upperback 7.73214 -2.12816 8.0663
thorax -7.75843 -1.48159 8.00462
lowerneck -11.4216 -2.43262 -3.47806
upperneck 21.9787 -1.16971 -9.05249
head 8.75076 -1.94501 -2.64091
rclavicle -2.38542e-014 -1.74931e-014
rhumerus -18.0899 -54.0078 -35.2622
rradius 50.624
rwrist -36.219
rhand 8.80944 -0.302355
rfingers 7.12502
rthumb 33.9963 -27.0869
lclavicle -2.38542e-014 -1.74931e-014
lhumerus -46.2022 8.58169 80.6123
lradius 46.1931
lwrist 5.76563
lhand -13.2097 47.5008
lfingers 7.12502
lthumb 12.891 77.0826
rfemur -46.7383 -1.837 17.2639
rtibia 62.4688
rfoot -9.68907 11.221
rtoes -16.1181
lfemur -16.1726 4.34906 -38.6057
ltibia 36.413
lfoot -11.3666 -9.38213
ltoes 7.32173
44
root 0.350318 17.2727 -15.1856 -11.963 -78.6406 18.0751
lowerback 31.4375 -2.23937 2.00877
upperback 7.61892 -2.326 7.89958
thorax -7.74184 -1.5524 8.17284
lowerneck -11.3284 -2.2136 -2.59175
upperneck 21.99 -0.94533 -9.54273
head 8.7272 -1.81662 -2.93092
rclavicle -3.49861e-014 -8.42847e-014
rhumerus -18.7045 -53.964 -34.4941
rradius 51.9556
rwrist -36.4061
rhand 10.0224 -0.0330771
rfingers 7.12502
rthumb 35.1475 -26.5546
lclavicle -3.49861e-014 -8.42847e-014
lhumerus -46.4831 8.8884 80.4006
lradius 46.8064
lwrist 5.33361
lhand -12.1664 46.6717
lfingers 7.12502
lthumb 13.8966 76.1873
rfemur -47.2343 -2.68123 17.9047
rtibia 62.0186
rfoot -9.31702 12.1784
rtoes -15.5238
lfemur -16.0405 4.7549 -39.4387
ltibia 35.7058
lfoot -10.4315 -10.307
ltoes 10.1201
45
root 0.339039 17.2886 -15.0833 -12.1538 -78.3207 18.5536
lowerback 31.2807 -2.34592 1.69601
upperback 7.52995 -2.54578 7.88501
thorax -7.74515 -1.64469 8.40116
lowerneck -11.6042 -2.44323 -3.43077
upperneck 22.2957 -1.20551 -8.85266
head 8.89215 -1.95247 -2.59862
rclavicle -1.43125e-014 8.26944e-014
rhumerus -18.9119 -53.4755 -33.9711
rradius 53.2779
rwrist -36.9588
rhand 10.9532 0.514742
rfingers 7.12502
rthumb 36.0299 -25.7944
lclavicle -1.43125e-014 8.26944e-014
lhumerus -46.6159 9.34241 80.1594
lradius 47.2383
lwrist 5.35493
lhand -13.237 46.4572
lfingers 7.12502
lthumb 12.8647 76.0407
rfemur -47.4845 -3.37806 18.9837
rtibia 61.3729
rfoot -9.00251 12.6557
rtoes -16.1509
lfemur -15.9835 6.16264 -39.8572
ltibia 35.2369
lfoot -9.57277 -11.6812
ltoes 12.1783
46
root 0.335201 17.3152 -14.974 -8.8514 -78.0726 15.402
lowerback 31.2651 -2.51404 2.20443
upperback 7.39377 -2.57377 8.00921
thorax -7.89028 -1.65652 8.27465
lowerneck -11.1845 -2.20627 -3.40332
upperneck 22.0186 -0.950246 -8.71898
head 8.726 -1.79704 -2.51185
rclavicle -1.59028e-014 -2.70347e-014
rhumerus -19.6918 -52.765 -32.8872
rradius 54.8016
rwrist -38.0799
rhand 11.7576 0.616576
rfingers 7.12502
rthumb 36.7914 -25.5015
lclavicle -1.59028e-014 -2.70347e-014
lhumerus -46.643 8.88717 80.0666
lradius 47.6361
lwrist 5.82118
lhand -12.4823 46.4477
lfingers 7.12502
lthumb 13.5922 75.984
rfemur -47.4843 -4.14846 20.9156
rtibia 60.5578
rfoot -8.71686 12.9646
rtoes -18.4954
lfemur -15.7565 5.07452 -39.657
ltibia 34.7249
lfoot -9.28153 -10.3878
ltoes 9.94786
